<?xml version="1.0" encoding="UTF-8"?><svg id="Layer_2" xmlns="http://www.w3.org/2000/svg" viewBox="0 0 127.38 127.38"><g id="Capa_3"><path d="M80.05,28.01l1.64-5c.41-1.25-1.37-1.98-1.96-.81l-2.12,4.18c-.14.28-.09.62.14.84.35.33.72.69,1.12,1.08.38.37,1.02.22,1.18-.29Z" style="fill:#ffb100;"/><path d="M63.69,19.91c.59,0,1.18.03,1.77.1.45.05.84-.3.8-.75l-1.39-18.16c-.11-1.45-2.24-1.45-2.36,0l-1.39,18.16c-.03.45.35.8.8.75.58-.07,1.17-.1,1.77-.1Z" style="fill:#ffb100;"/><path d="M104.37,45.69l-5,1.64c-.5.16-.65.8-.29,1.18.39.4.75.78,1.08,1.12.22.23.55.28.84.14l4.18-2.12c1.17-.59.44-2.37-.81-1.96Z" style="fill:#ffb100;"/><path d="M104.37,81.69c1.25.41,1.98-1.37.81-1.96l-4.18-2.12c-.28-.14-.62-.09-.84.14-.33.35-.69.72-1.08,1.12-.37.38-.22,1.02.29,1.18l5,1.64Z" style="fill:#ffb100;"/><path d="M23.01,45.69c-1.25-.41-1.98,1.37-.81,1.96l4.18,2.12c.28.14.62.09.84-.14.33-.35.69-.72,1.08-1.12.37-.38.22-1.02-.29-1.18l-5-1.64Z" style="fill:#ffb100;"/><path d="M89.32,38.7c.49.49.97.96,1.43,1.42.29.29.77.27,1.04-.05l16.99-19.82c.95-1.11-.56-2.61-1.67-1.67l-19.81,16.99c-.32.27-.34.75-.04,1.04.65.66,1.33,1.34,2.06,2.08Z" style="fill:#ffb100;"/><path d="M48.51,28.31c.4-.39.78-.75,1.12-1.08.23-.22.28-.55.14-.84l-2.12-4.19c-.59-1.17-2.37-.44-1.96.81l1.64,5.01c.16.5.8.65,1.18.29Z" style="fill:#ffb100;"/><path d="M23.01,81.69l5-1.64c.5-.16.65-.8.29-1.18-.39-.4-.75-.78-1.08-1.12-.22-.23-.55-.28-.84-.14l-4.18,2.12c-1.17.59-.44,2.37.81,1.96Z" style="fill:#ffb100;"/><path d="M19.91,63.69c0-.59.03-1.18.1-1.77.05-.45-.3-.84-.75-.8l-18.16,1.39c-1.45.11-1.45,2.24,0,2.36l18.16,1.39c.45.03.8-.35.75-.8-.07-.58-.1-1.17-.1-1.77Z" style="fill:#ffb100;"/><path d="M78.87,99.08c-.4.39-.78.75-1.12,1.08-.23.22-.28.55-.14.84l2.12,4.18c.59,1.17,2.37.44,1.96-.81l-1.64-5c-.16-.5-.8-.65-1.18-.29Z" style="fill:#ffb100;"/><path d="M91.79,87.31c-.27-.32-.75-.34-1.04-.04-.64.64-1.31,1.3-2.02,2-.51.51-1,1.01-1.47,1.49-.29.29-.27.77.05,1.04l19.82,16.99c1.11.95,2.61-.56,1.67-1.67l-16.99-19.81Z" style="fill:#ffb100;"/><path d="M126.29,62.51l-18.16-1.39c-.45-.03-.8.35-.75.8.07.58.1,1.17.1,1.77s-.03,1.18-.1,1.77c-.05.45.3.84.75.8l18.16-1.39c1.45-.11,1.45-2.24,0-2.36Z" style="fill:#ffb100;"/><path d="M38.18,88.8c-.54-.53-1.05-1.05-1.55-1.54-.29-.29-.77-.27-1.05.04l-16.99,19.82c-.95,1.11.56,2.61,1.67,1.67l19.81-16.99c.32-.27.34-.75.04-1.04-.62-.62-1.25-1.26-1.93-1.95Z" style="fill:#ffb100;"/><path d="M35.58,40.07c.27.32.75.34,1.04.04.64-.63,1.3-1.29,2.01-1.99.51-.52,1.01-1.02,1.49-1.5.29-.29.27-.77-.05-1.04l-19.82-16.99c-1.11-.95-2.61.56-1.67,1.67l16.99,19.81Z" style="fill:#ffb100;"/><path d="M63.69,107.47c-.59,0-1.18-.03-1.77-.1-.45-.05-.84.3-.8.75l1.39,18.16c.11,1.45,2.24,1.45,2.36,0l1.39-18.16c.03-.45-.35-.8-.8-.75-.58.07-1.17.1-1.77.1Z" style="fill:#ffb100;"/><path d="M47.33,99.36l-1.64,5c-.41,1.25,1.37,1.98,1.96.81l2.12-4.18c.14-.28.09-.62-.14-.84-.35-.33-.72-.69-1.12-1.08-.38-.37-1.02-.22-1.18.29Z" style="fill:#ffb100;"/><path d="M66.58,71.83c1.97-1.8,5.43-5.15,6.72-6.66.59-.67.55-1.5.55-1.5,0,0,.04-.83-.55-1.5-1.29-1.51-4.75-4.86-6.72-6.66-.8-.75-1-1.22-1-2.14v-10.18c0-.48.46-.7.85-.36,4.38,4.06,14.15,13.74,17.42,17.49,1.56,1.66,1.42,3.35,1.42,3.35,0,0,.14,1.69-1.42,3.35-3.28,3.75-13.04,13.43-17.42,17.49-.39.34-.85.13-.85-.36v-10.18c0-.92.19-1.39,1-2.14h0ZM60.81,71.82c-1.97-1.8-5.43-5.15-6.72-6.66-.59-.67-.55-1.5-.55-1.5,0,0-.04-.83.55-1.5,1.29-1.51,4.75-4.86,6.72-6.66.8-.75,1-1.22,1-2.14v-10.21c0-.41-.48-.67-.85-.32-4.38,4.06-14.15,13.74-17.42,17.49-1.57,1.66-1.42,3.35-1.42,3.35,0,0-.14,1.69,1.42,3.35,3.28,3.75,13.04,13.43,17.42,17.49.39.34.85.13.85-.36v-10.18c0-.93-.19-1.4-1-2.15h0ZM24.88,66.62c4.41,4.55,28.25,29.14,32.72,32.69,1.56,1.25,3.57,2.17,6.09,2.17s4.53-.92,6.09-2.17c4.47-3.55,28.31-28.14,32.72-32.69.36-.41.03-1.06-.51-1.06-2.2,0-7.31,0-10.38,0-1.08,0-1.4.19-2.09.92-.68.73-4.07,4.37-4.07,4.37-4.31,4.65-14.82,14.91-18.67,18.14-1.44,1.22-3.08,1.18-3.1,1.18s-1.66.04-3.1-1.18c-3.84-3.24-14.36-13.5-18.67-18.14,0,0-3.39-3.64-4.07-4.37s-1-.92-2.09-.92c-3.07,0-8.18,0-10.38,0-.53,0-.86.65-.5,1.06h0ZM102.5,60.76c-4.41-4.55-28.25-29.14-32.72-32.69-1.56-1.25-3.57-2.17-6.09-2.17s-4.53.92-6.09,2.17c-4.47,3.55-28.32,28.14-32.73,32.69-.36.41-.03,1.06.51,1.06,2.2,0,7.31,0,10.38,0,1.08,0,1.4-.19,2.09-.92.68-.73,4.07-4.37,4.07-4.37,4.31-4.65,14.82-14.91,18.67-18.14,1.44-1.22,3.08-1.18,3.1-1.18s1.66-.04,3.1,1.18c3.84,3.24,14.36,13.5,18.67,18.14,0,0,3.39,3.64,4.07,4.37s1,.92,2.09.92c3.07,0,8.18,0,10.38,0,.54,0,.86-.65.5-1.06h0Z" style="fill:#ffb100;"/></g></svg>