<?xml version="1.0" encoding="UTF-8"?>
<svg id="Layer_2" xmlns="http://www.w3.org/2000/svg" version="1.1" viewBox="0 0 128 128">
  <!-- Generator: Adobe Illustrator 30.2.1, SVG Export Plug-In . SVG Version: 2.1.1 Build 1)  -->
  <defs>
    <style>
      .st0 {
        fill: #ffb100;
      }
    </style>
  </defs>
  <g id="Capa_3">
    <path class="st0" d="M79.4,30.4l1.5-4.7c.4-1.2-1.3-1.9-1.8-.8l-2,3.9c-.1.3,0,.6.1.8.3.3.7.7,1.1,1,.4.3,1,.2,1.1-.3Z"/>
    <path class="st0" d="M64,22.8c.6,0,1.1,0,1.7,0,.4,0,.8-.3.8-.7l-1.3-17.1c-.1-1.4-2.1-1.4-2.2,0l-1.3,17.1c0,.4.3.8.8.7.5,0,1.1,0,1.7,0Z"/>
    <path class="st0" d="M102.3,47l-4.7,1.5c-.5.2-.6.8-.3,1.1.4.4.7.7,1,1.1.2.2.5.3.8.1l3.9-2c1.1-.6.4-2.2-.8-1.8Z"/>
    <path class="st0" d="M102.3,81c1.2.4,1.9-1.3.8-1.8l-3.9-2c-.3-.1-.6,0-.8.1-.3.3-.7.7-1,1.1-.3.4-.2,1,.3,1.1l4.7,1.5Z"/>
    <path class="st0" d="M25.7,47c-1.2-.4-1.9,1.3-.8,1.8l3.9,2c.3.1.6,0,.8-.1.3-.3.7-.7,1-1.1.3-.4.2-1-.3-1.1l-4.7-1.5Z"/>
    <path class="st0" d="M88.1,40.5c.5.5.9.9,1.3,1.3s.7.3,1,0l16-18.7c.9-1-.5-2.5-1.6-1.6l-18.7,16c-.3.3-.3.7,0,1,.6.6,1.3,1.3,1.9,2h0Z"/>
    <path class="st0" d="M49.7,30.7c.4-.4.7-.7,1.1-1,.2-.2.3-.5.1-.8l-2-3.9c-.6-1.1-2.2-.4-1.8.8l1.5,4.7c.2.5.8.6,1.1.3Z"/>
    <path class="st0" d="M25.7,81l4.7-1.5c.5-.2.6-.8.3-1.1-.4-.4-.7-.7-1-1.1-.2-.2-.5-.3-.8-.1l-3.9,2c-1.1.6-.4,2.2.8,1.8Z"/>
    <path class="st0" d="M22.8,64c0-.6,0-1.1,0-1.7,0-.4-.3-.8-.7-.8l-17.1,1.3c-1.4.1-1.4,2.1,0,2.2l17.1,1.3c.4,0,.8-.3.7-.8,0-.5,0-1.1,0-1.7Z"/>
    <path class="st0" d="M78.3,97.3c-.4.4-.7.7-1.1,1-.2.2-.3.5-.1.8l2,3.9c.6,1.1,2.2.4,1.8-.8l-1.5-4.7c-.2-.5-.8-.6-1.1-.3Z"/>
    <path class="st0" d="M90.5,86.3c-.3-.3-.7-.3-1,0-.6.6-1.2,1.2-1.9,1.9-.5.5-.9,1-1.4,1.4-.3.3-.3.7,0,1l18.7,16c1,.9,2.5-.5,1.6-1.6l-16-18.7h0Z"/>
    <path class="st0" d="M123,62.9l-17.1-1.3c-.4,0-.8.3-.7.8,0,.5,0,1.1,0,1.7s0,1.1,0,1.7c0,.4.3.8.7.8l17.1-1.3c1.4-.1,1.4-2.1,0-2.2Z"/>
    <path class="st0" d="M40,87.7c-.5-.5-1-1-1.5-1.5-.3-.3-.7-.3-1,0l-16,18.7c-.9,1,.5,2.5,1.6,1.6l18.7-16c.3-.3.3-.7,0-1-.6-.6-1.2-1.2-1.8-1.8h0Z"/>
    <path class="st0" d="M37.5,41.7c.3.3.7.3,1,0,.6-.6,1.2-1.2,1.9-1.9.5-.5,1-1,1.4-1.4.3-.3.3-.7,0-1l-18.7-16c-1-.9-2.5.5-1.6,1.6l16,18.7h0Z"/>
    <path class="st0" d="M64,105.2c-.6,0-1.1,0-1.7,0-.4,0-.8.3-.8.7l1.3,17.1c.1,1.4,2.1,1.4,2.2,0l1.3-17.1c0-.4-.3-.8-.8-.7-.5,0-1.1,0-1.7,0Z"/>
    <path class="st0" d="M48.6,97.6l-1.5,4.7c-.4,1.2,1.3,1.9,1.8.8l2-3.9c.1-.3,0-.6-.1-.8-.3-.3-.7-.7-1.1-1-.4-.3-1-.2-1.1.3Z"/>
    <path class="st0" d="M66.7,71.7c1.9-1.7,5.1-4.9,6.3-6.3.6-.6.5-1.4.5-1.4,0,0,0-.8-.5-1.4-1.2-1.4-4.5-4.6-6.3-6.3-.8-.7-.9-1.1-.9-2v-9.6c0-.5.4-.7.8-.3,4.1,3.8,13.3,12.9,16.4,16.5,1.5,1.6,1.3,3.2,1.3,3.2,0,0,.1,1.6-1.3,3.2-3.1,3.5-12.3,12.7-16.4,16.5-.4.3-.8.1-.8-.3v-9.6c0-.9.2-1.3.9-2h0ZM61.3,71.7c-1.9-1.7-5.1-4.9-6.3-6.3-.6-.6-.5-1.4-.5-1.4,0,0,0-.8.5-1.4,1.2-1.4,4.5-4.6,6.3-6.3.8-.7.9-1.1.9-2v-9.6c0-.4-.5-.6-.8-.3-4.1,3.8-13.3,12.9-16.4,16.5-1.5,1.6-1.3,3.2-1.3,3.2,0,0-.1,1.6,1.3,3.2,3.1,3.5,12.3,12.7,16.4,16.5.4.3.8.1.8-.3v-9.6c0-.9-.2-1.3-.9-2h0ZM27.4,66.8c4.2,4.3,26.6,27.5,30.8,30.8,1.5,1.2,3.4,2,5.7,2s4.3-.9,5.7-2c4.2-3.3,26.7-26.5,30.8-30.8.3-.4,0-1-.5-1h-9.8c-1,0-1.3.2-2,.9-.6.7-3.8,4.1-3.8,4.1-4.1,4.4-14,14-17.6,17.1-1.4,1.1-2.9,1.1-2.9,1.1s-1.6,0-2.9-1.1c-3.6-3.1-13.5-12.7-17.6-17.1,0,0-3.2-3.4-3.8-4.1s-.9-.9-2-.9h-9.8c-.5,0-.8.6-.5,1h0ZM100.6,61.2c-4.2-4.3-26.6-27.5-30.8-30.8-1.5-1.2-3.4-2-5.7-2s-4.3.9-5.7,2c-4.2,3.3-26.7,26.5-30.8,30.8-.3.4,0,1,.5,1h9.8c1,0,1.3-.2,2-.9.6-.7,3.8-4.1,3.8-4.1,4.1-4.4,14-14,17.6-17.1,1.4-1.1,2.9-1.1,2.9-1.1s1.6,0,2.9,1.1c3.6,3.1,13.5,12.7,17.6,17.1,0,0,3.2,3.4,3.8,4.1.6.7.9.9,2,.9h9.8c.5,0,.8-.6.5-1h0Z"/>
  </g>
</svg>